<svg width="183" height="192" viewBox="0 0 183 192" fill="none" xmlns="http://www.w3.org/2000/svg">
<path d="M58.9752 143.4H49.9752V156H50.9292V144.3H58.0032V156H58.9752V143.4ZM66.6765 146.802C64.9305 146.802 63.5445 147.702 62.8065 149.088V147H61.9065V159.6H62.8065V153.912C63.5445 155.298 64.9305 156.198 66.6765 156.198C69.2505 156.198 71.3385 154.164 71.3385 151.5C71.3385 148.836 69.2505 146.802 66.6765 146.802ZM66.6225 155.334C64.4805 155.334 62.8065 153.642 62.8065 151.5C62.8065 149.358 64.4805 147.666 66.6225 147.666C68.7645 147.666 70.4385 149.358 70.4385 151.5C70.4385 153.642 68.7645 155.334 66.6225 155.334ZM80.1501 147L74.4081 154.434V147H73.5081V156H74.3001L80.0241 148.566V156H80.9421V147H80.1501ZM87.771 146.802C85.017 146.802 83.109 148.854 83.109 151.5C83.109 154.218 85.071 156.198 87.843 156.198C89.625 156.198 91.029 155.388 91.767 154.164L90.975 153.696C90.453 154.65 89.337 155.334 87.861 155.334C85.809 155.334 84.261 154.002 84.045 151.968H92.199C92.199 151.824 92.217 151.68 92.217 151.536C92.217 149.07 90.507 146.802 87.771 146.802ZM87.771 147.666C89.535 147.666 91.083 148.89 91.281 151.086H84.045C84.225 149.088 85.719 147.666 87.771 147.666ZM98.4648 151.356C99.2928 150.96 99.7248 150.186 99.7248 149.304C99.7248 147.972 98.6088 146.802 96.7008 146.802C95.0628 146.802 94.0008 147.594 93.5148 148.692L94.2708 149.124C94.6488 148.188 95.5128 147.666 96.7008 147.666C97.9788 147.666 98.8248 148.386 98.8248 149.34C98.8248 150.348 98.1048 150.996 96.9348 150.996H96.0348V151.878H97.2768C98.5008 151.878 99.2568 152.562 99.2568 153.534C99.2568 154.578 98.3928 155.334 96.8628 155.334C95.2968 155.334 94.4688 154.632 94.1268 153.624L93.3528 154.074C93.8028 155.262 94.8468 156.198 96.8628 156.198C99.0768 156.198 100.175 154.956 100.175 153.588C100.175 152.562 99.5628 151.716 98.4648 151.356ZM112.119 156L107.871 151.32L111.939 147H110.823L107.025 151.068V147H106.107V151.068L102.309 147H101.193L105.279 151.32L101.013 156H102.129L106.107 151.572V156H107.025V151.572L111.003 156H112.119ZM121.119 147V149.034C120.363 147.684 118.977 146.802 117.249 146.802C114.693 146.802 112.587 148.836 112.587 151.5C112.587 154.164 114.693 156.198 117.249 156.198C118.977 156.198 120.363 155.316 121.119 153.966V156H122.037V147H121.119ZM117.321 155.334C115.179 155.334 113.505 153.642 113.505 151.5C113.505 149.358 115.179 147.666 117.321 147.666C119.463 147.666 121.119 149.358 121.119 151.5C121.119 153.642 119.463 155.334 117.321 155.334ZM128.851 146.802C126.097 146.802 124.189 148.854 124.189 151.5C124.189 154.218 126.151 156.198 128.923 156.198C130.705 156.198 132.109 155.388 132.847 154.164L132.055 153.696C131.533 154.65 130.417 155.334 128.941 155.334C126.889 155.334 125.341 154.002 125.125 151.968H133.279C133.279 151.824 133.297 151.68 133.297 151.536C133.297 149.07 131.587 146.802 128.851 146.802ZM128.851 147.666C130.615 147.666 132.163 148.89 132.361 151.086H125.125C125.305 149.088 126.799 147.666 128.851 147.666ZM141.349 147H133.897V147.882H137.173V156H138.073V147.882H141.349V147ZM57.0244 172.356C57.8524 171.96 58.2844 171.186 58.2844 170.304C58.2844 168.972 57.1684 167.802 55.2604 167.802C53.6224 167.802 52.5604 168.594 52.0744 169.692L52.8304 170.124C53.2084 169.188 54.0724 168.666 55.2604 168.666C56.5384 168.666 57.3844 169.386 57.3844 170.34C57.3844 171.348 56.6644 171.996 55.4944 171.996H54.5944V172.878H55.8364C57.0604 172.878 57.8164 173.562 57.8164 174.534C57.8164 175.578 56.9524 176.334 55.4224 176.334C53.8564 176.334 53.0284 175.632 52.6864 174.624L51.9124 175.074C52.3624 176.262 53.4064 177.198 55.4224 177.198C57.6364 177.198 58.7344 175.956 58.7344 174.588C58.7344 173.562 58.1224 172.716 57.0244 172.356ZM68.64 168V170.034C67.884 168.684 66.498 167.802 64.77 167.802C62.214 167.802 60.108 169.836 60.108 172.5C60.108 175.164 62.214 177.198 64.77 177.198C66.498 177.198 67.884 176.316 68.64 174.966V177H69.558V168H68.64ZM64.842 176.334C62.7 176.334 61.026 174.642 61.026 172.5C61.026 170.358 62.7 168.666 64.842 168.666C66.984 168.666 68.64 170.358 68.64 172.5C68.64 174.642 66.984 176.334 64.842 176.334ZM81.0155 168H79.9355L76.6595 173.166L73.3835 168H72.3215V177H73.2215V169.332L76.6055 174.678H76.7315L80.0975 169.368V177H81.0155V168ZM87.8325 167.802C85.0785 167.802 83.1705 169.854 83.1705 172.5C83.1705 175.218 85.1325 177.198 87.9045 177.198C89.6865 177.198 91.0905 176.388 91.8285 175.164L91.0365 174.696C90.5145 175.65 89.3985 176.334 87.9225 176.334C85.8705 176.334 84.3225 175.002 84.1065 172.968H92.2605C92.2605 172.824 92.2785 172.68 92.2785 172.536C92.2785 170.07 90.5685 167.802 87.8325 167.802ZM87.8325 168.666C89.5965 168.666 91.1445 169.89 91.3425 172.086H84.1065C84.2865 170.088 85.7805 168.666 87.8325 168.666ZM99.1521 167.802C97.4061 167.802 96.0201 168.702 95.2821 170.088V168H94.3821V180.6H95.2821V174.912C96.0201 176.298 97.4061 177.198 99.1521 177.198C101.726 177.198 103.814 175.164 103.814 172.5C103.814 169.836 101.726 167.802 99.1521 167.802ZM99.0981 176.334C96.9561 176.334 95.2821 174.642 95.2821 172.5C95.2821 170.358 96.9561 168.666 99.0981 168.666C101.24 168.666 102.914 170.358 102.914 172.5C102.914 174.642 101.24 176.334 99.0981 176.334ZM117.918 176.118V168H117V176.118H112.41V168H111.492V176.118H106.884V168H105.984V177H118.26V179.412H119.178V176.118H117.918ZM127.796 168L122.054 175.434V168H121.154V177H121.946L127.67 169.566V177H128.588V168H127.796ZM138.26 177L133.238 172.32L138.08 168H136.82L132.266 172.086V168H131.366V177H132.266V172.572L137.036 177H138.26Z" fill="black"/>
<path d="M49.6098 31.4L61.7098 16V3H16.7098V18H42.3098L29.6098 34.1L35.7098 43.2H39.0098C45.6098 43.2 48.5098 46.7 48.5098 51C48.5098 55.3 45.6098 58.8 39.0098 58.8C32.9098 58.8 29.9098 56 28.3098 51.4L14.5098 59.4C18.8098 69.7 28.4098 74.4 39.0098 74.4C52.5098 74.4 64.5098 66.4 64.5098 51C64.5098 41.3 58.2098 34.4 49.6098 31.4Z" fill="#FF6B00"/>
<path d="M113.677 24.1935H98.3596C94.3686 24.1935 90.7727 26.5647 89.2029 30.2325L86.1296 37.4017C85.5937 38.6501 85.3225 39.9675 85.3225 41.3265C85.3225 46.7616 89.5724 51.1334 94.9999 51.2865C95.0018 38.9072 102.765 28.366 113.677 24.1935Z" fill="#0085FF"/>
<path d="M124.032 20.3226C106.958 20.3226 93.0645 34.2159 93.0645 51.2903V59.0322H91.129C88.6095 59.0322 86.4803 60.6559 85.6789 62.9032H35V90H46.6129V78.3871H85.6789C86.4803 80.6344 88.6095 82.2581 91.129 82.2581H124.032C141.107 82.2581 155 68.3647 155 51.2903C155 34.2159 141.107 20.3226 124.032 20.3226ZM85.3226 66.7742V74.5161H53.2784C53.9447 73.3726 54.3548 72.0618 54.3548 70.6452C54.3548 69.2285 53.9447 67.9177 53.2784 66.7742H85.3226ZM38.871 66.7742H46.6129C48.7478 66.7742 50.4839 68.5103 50.4839 70.6452C50.4839 72.78 48.7478 74.5161 46.6129 74.5161H38.871V66.7742ZM38.871 86.129V78.3871H42.7419V86.129H38.871ZM91.129 78.3871C90.0611 78.3871 89.1935 77.5195 89.1935 76.4516V64.8387C89.1935 63.7708 90.0611 62.9032 91.129 62.9032H93.0645V78.3871H91.129ZM124.032 78.3871H96.9355V51.2903C96.9355 37.0029 108.059 25.2908 122.097 24.2918V33.871H125.968V24.2918C129.492 24.5442 132.825 25.4713 135.852 26.9456L131.065 35.2375L134.418 37.173L139.217 28.8621C142.065 30.7957 144.525 33.2576 146.46 36.106L138.15 40.9041L140.085 44.2572L148.377 39.4704C149.853 42.4975 150.778 45.8307 151.031 49.3548H141.452V53.2258H151.031C150.778 56.7499 149.851 60.0832 148.377 63.1102L140.085 58.3235L138.15 61.6765L146.46 66.4746C141.583 73.659 133.35 78.3871 124.032 78.3871Z" fill="#212F3C"/>
<path d="M100.806 70.6451H104.677V74.5161H100.806V70.6451Z" fill="#212F3C"/>
<path d="M65.9678 30H69.8387V33.871H65.9678V30Z" fill="#212F3C"/>
<path d="M65.9678 37.7419H69.8387V41.6129H65.9678V37.7419Z" fill="#212F3C"/>
<path d="M69.8386 33.871H73.7096V37.7419H69.8386V33.871Z" fill="#212F3C"/>
<path d="M62.0967 33.871H65.9676V37.7419H62.0967V33.871Z" fill="#212F3C"/>
<path d="M48.5483 43.5484H52.4193V47.4194H48.5483V43.5484Z" fill="#212F3C"/>
<path d="M48.5483 51.2903H52.4193V55.1613H48.5483V51.2903Z" fill="#212F3C"/>
<path d="M52.4192 47.4194H56.2902V51.2903H52.4192V47.4194Z" fill="#212F3C"/>
<path d="M44.6775 47.4194H48.5485V51.2903H44.6775V47.4194Z" fill="#212F3C"/>
<path d="M67.9033 82.2581H71.7743V86.129H67.9033V82.2581Z" fill="#212F3C"/>
<path d="M67.9033 90H71.7743V93.871H67.9033V90Z" fill="#212F3C"/>
<path d="M71.7742 86.129H75.6451V90H71.7742V86.129Z" fill="#212F3C"/>
<path d="M64.0322 86.129H67.9032V90H64.0322V86.129Z" fill="#212F3C"/>
<path d="M122.097 88.0645H125.968V91.9355H122.097V88.0645Z" fill="#212F3C"/>
<path d="M122.097 95.8065H125.968V99.6774H122.097V95.8065Z" fill="#212F3C"/>
<path d="M125.968 91.9355H129.839V95.8064H125.968V91.9355Z" fill="#212F3C"/>
<path d="M118.226 91.9355H122.097V95.8064H118.226V91.9355Z" fill="#212F3C"/>
<path d="M124.032 70.6452C113.36 70.6452 104.677 61.9629 104.677 51.2903C104.677 40.6178 113.36 31.9355 124.032 31.9355C134.705 31.9355 143.387 40.6178 143.387 51.2903C143.387 61.9629 134.705 70.6452 124.032 70.6452Z" fill="#0085FF"/>
<path d="M133.71 53.2258H114.355V41.6129H133.71V53.2258ZM118.226 49.3549H129.839V45.4839H118.226V49.3549Z" fill="#212F3C"/>
<path d="M114.355 57.0968H133.71V60.9678H114.355V57.0968Z" fill="#212F3C"/>
</svg>
