<svg width="163" height="192" viewBox="0 0 163 192" fill="none" xmlns="http://www.w3.org/2000/svg">
<path d="M45.1231 143.4H43.9171L39.4171 150.852L34.9171 143.4H33.7291V156H34.6831V144.804L39.3451 152.544H39.5071L44.1691 144.804V156H45.1231V143.4ZM52.1906 156.198C54.8006 156.198 56.9066 154.164 56.9066 151.5C56.9066 148.836 54.8006 146.802 52.1906 146.802C49.5626 146.802 47.4566 148.836 47.4566 151.5C47.4566 154.164 49.5626 156.198 52.1906 156.198ZM52.1906 155.334C50.0486 155.334 48.3746 153.642 48.3746 151.5C48.3746 149.358 50.0486 147.666 52.1906 147.666C54.3326 147.666 55.9886 149.358 55.9886 151.5C55.9886 153.642 54.3326 155.334 52.1906 155.334ZM65.5885 147V151.068H59.9725V147H59.0725V156H59.9725V151.932H65.5885V156H66.5065V147H65.5885ZM75.5854 147H68.1334V147.882H71.4094V156H72.3094V147.882H75.5854V147ZM84.7816 147V149.034C84.0256 147.684 82.6396 146.802 80.9116 146.802C78.3556 146.802 76.2496 148.836 76.2496 151.5C76.2496 154.164 78.3556 156.198 80.9116 156.198C82.6396 156.198 84.0256 155.316 84.7816 153.966V156H85.6996V147H84.7816ZM80.9836 155.334C78.8416 155.334 77.1676 153.642 77.1676 151.5C77.1676 149.358 78.8416 147.666 80.9836 147.666C83.1256 147.666 84.7816 149.358 84.7816 151.5C84.7816 153.642 83.1256 155.334 80.9836 155.334ZM98.5971 156L94.3491 151.32L98.4171 147H97.3011L93.5031 151.068V147H92.5851V151.068L88.7871 147H87.6711L91.7571 151.32L87.4911 156H88.6071L92.5851 151.572V156H93.5031V151.572L97.4811 156H98.5971ZM109.32 156.198C111.93 156.198 114.036 154.164 114.036 151.5C114.036 148.836 111.93 146.802 109.32 146.802C106.692 146.802 104.586 148.836 104.586 151.5C104.586 154.164 106.692 156.198 109.32 156.198ZM109.32 155.334C107.178 155.334 105.504 153.642 105.504 151.5C105.504 149.358 107.178 147.666 109.32 147.666C111.462 147.666 113.118 149.358 113.118 151.5C113.118 153.642 111.462 155.334 109.32 155.334ZM123.095 156L118.073 151.32L122.915 147H121.655L117.101 151.086V147H116.201V156H117.101V151.572L121.871 156H123.095ZM128.128 156.198C130.738 156.198 132.844 154.164 132.844 151.5C132.844 148.836 130.738 146.802 128.128 146.802C125.5 146.802 123.394 148.836 123.394 151.5C123.394 154.164 125.5 156.198 128.128 156.198ZM128.128 155.334C125.986 155.334 124.312 153.642 124.312 151.5C124.312 149.358 125.986 147.666 128.128 147.666C130.27 147.666 131.926 149.358 131.926 151.5C131.926 153.642 130.27 155.334 128.128 155.334ZM141.526 147V151.068H135.91V147H135.01V156H135.91V151.932H141.526V156H142.444V147H141.526ZM40.9829 168H33.5309V168.882H36.8069V177H37.7069V168.882H40.9829V168ZM46.381 177.198C48.991 177.198 51.097 175.164 51.097 172.5C51.097 169.836 48.991 167.802 46.381 167.802C43.753 167.802 41.647 169.836 41.647 172.5C41.647 175.164 43.753 177.198 46.381 177.198ZM46.381 176.334C44.239 176.334 42.565 174.642 42.565 172.5C42.565 170.358 44.239 168.666 46.381 168.666C48.523 168.666 50.179 170.358 50.179 172.5C50.179 174.642 48.523 176.334 46.381 176.334ZM59.0632 168V172.626C58.2172 173.004 57.2452 173.202 56.2912 173.202C54.5812 173.202 53.6272 172.5 53.6272 170.934V168H52.7272V170.934C52.7272 172.986 54.0412 174.066 56.3272 174.066C57.2992 174.066 58.2712 173.868 59.0632 173.472V177H59.9812V168H59.0632ZM69.2711 168V172.068H63.6551V168H62.7551V177H63.6551V172.932H69.2711V177H70.1891V168H69.2711ZM77.09 177.198C79.7 177.198 81.806 175.164 81.806 172.5C81.806 169.836 79.7 167.802 77.09 167.802C74.462 167.802 72.356 169.836 72.356 172.5C72.356 175.164 74.462 177.198 77.09 177.198ZM77.09 176.334C74.948 176.334 73.274 174.642 73.274 172.5C73.274 170.358 74.948 168.666 77.09 168.666C79.232 168.666 80.888 170.358 80.888 172.5C80.888 174.642 79.232 176.334 77.09 176.334ZM94.3148 172.356C95.0888 171.978 95.4668 171.24 95.4668 170.358C95.4668 169.044 94.5488 168 92.7848 168H88.7708V177H93.1268C94.9988 177 95.8988 175.884 95.8988 174.516C95.8988 173.49 95.3588 172.698 94.3148 172.356ZM92.7848 168.882C93.9188 168.882 94.5488 169.458 94.5488 170.412C94.5488 171.42 93.9368 171.996 92.7848 171.996H89.6708V168.882H92.7848ZM93.1268 176.118H89.6708V172.878H93.1268C94.3148 172.878 94.9988 173.49 94.9988 174.48C94.9988 175.506 94.3328 176.118 93.1268 176.118ZM106.815 177.198C108.579 177.198 110.091 176.298 110.811 174.912L110.055 174.462C109.461 175.578 108.273 176.334 106.815 176.334C104.637 176.334 102.999 174.642 102.999 172.5C102.999 170.358 104.637 168.666 106.815 168.666C108.255 168.666 109.479 169.404 110.001 170.538L110.739 170.106C110.091 168.702 108.579 167.802 106.815 167.802C104.097 167.802 102.081 169.836 102.081 172.5C102.081 175.164 104.097 177.198 106.815 177.198ZM117.552 167.802C115.806 167.802 114.42 168.702 113.682 170.088V168H112.782V180.6H113.682V174.912C114.42 176.298 115.806 177.198 117.552 177.198C120.126 177.198 122.214 175.164 122.214 172.5C122.214 169.836 120.126 167.802 117.552 167.802ZM117.498 176.334C115.356 176.334 113.682 174.642 113.682 172.5C113.682 170.358 115.356 168.666 117.498 168.666C119.64 168.666 121.314 170.358 121.314 172.5C121.314 174.642 119.64 176.334 117.498 176.334ZM128.506 177.198C131.116 177.198 133.222 175.164 133.222 172.5C133.222 169.836 131.116 167.802 128.506 167.802C125.878 167.802 123.772 169.836 123.772 172.5C123.772 175.164 125.878 177.198 128.506 177.198ZM128.506 176.334C126.364 176.334 124.69 174.642 124.69 172.5C124.69 170.358 126.364 168.666 128.506 168.666C130.648 168.666 132.304 170.358 132.304 172.5C132.304 174.642 130.648 176.334 128.506 176.334ZM142.282 177L137.26 172.32L142.102 168H140.842L136.288 172.086V168H135.388V177H136.288V172.572L141.058 177H142.282Z" fill="black"/>
<path d="M41.0098 27.6H35.3098L36.0098 18H61.5098V3H21.0098L18.1098 43.2H40.0098C46.1098 43.2 49.0098 46.7 49.0098 51C49.0098 55.3 46.1098 58.8 39.5098 58.8C32.9098 58.8 29.9098 56 28.3098 51.4L14.5098 59.4C18.8098 69.7 28.4098 74.4 39.5098 74.4C53.0098 74.4 65.0098 66.4 65.0098 51C65.0098 35.6 54.0098 27.6 41.0098 27.6Z" fill="#FF6B00"/>
<path d="M128.875 83.625H65.125V42.375H128.875V83.625Z" fill="#0085FF"/>
<path d="M155.125 25.5C155.125 20.3306 150.919 16.125 145.75 16.125H134.5C134.5 9.92062 130.294 4.875 125.125 4.875C119.956 4.875 115.75 9.92062 115.75 16.125H108.25C108.25 9.92062 104.044 4.875 98.875 4.875C93.7056 4.875 89.5 9.92062 89.5 16.125H82C82 9.92062 77.7944 4.875 72.625 4.875C67.4556 4.875 63.25 9.92062 63.25 16.125C58.0806 16.125 53.875 20.3306 53.875 25.5V91.125H38.875V100.5C38.875 105.669 43.0806 109.875 48.25 109.875H53.875V121.125H147.625V113.625H155.125V25.5ZM125.125 8.625C128.226 8.625 130.75 11.9887 130.75 16.125H119.5C119.5 11.9887 122.024 8.625 125.125 8.625ZM98.875 8.625C101.976 8.625 104.5 11.9887 104.5 16.125H93.25C93.25 11.9887 95.7738 8.625 98.875 8.625ZM72.625 8.625C75.7262 8.625 78.25 11.9887 78.25 16.125H67C67 11.9887 69.5238 8.625 72.625 8.625ZM63.25 19.875H63.7975C65.0894 24.2381 68.5525 27.375 72.625 27.375V23.625C70.5531 23.625 68.7587 22.1063 67.7819 19.875H90.0456C91.3375 24.2381 94.8006 27.375 98.8731 27.375V23.625C96.8013 23.625 95.0069 22.1063 94.03 19.875H116.294C117.586 24.2381 121.049 27.375 125.121 27.375V23.625C123.049 23.625 121.255 22.1063 120.278 19.875H138.293C137.108 21.4463 136.375 23.3813 136.375 25.5V31.125H57.625V25.5C57.625 22.3988 60.1488 19.875 63.25 19.875ZM57.625 34.875H136.375V100.5C136.375 103.601 133.851 106.125 130.75 106.125C127.649 106.125 125.125 103.601 125.125 100.5V91.125H57.625V34.875ZM42.625 100.5V94.875H121.375V100.5C121.375 102.609 122.074 104.558 123.254 106.125H48.25C45.1487 106.125 42.625 103.601 42.625 100.5ZM151.375 109.875H147.625V31.125H143.875V117.375H57.625V109.875H130.75C135.919 109.875 140.125 105.669 140.125 100.5V25.5C140.125 22.3988 142.649 19.875 145.75 19.875C148.851 19.875 151.375 22.3988 151.375 25.5V109.875Z" fill="#212F3C"/>
<path d="M143.875 23.625H147.625V27.375H143.875V23.625Z" fill="black"/>
<path d="M128.875 72.375H121.375V64.875H128.875V61.125H121.375V53.625H128.875V49.875H121.375V42.375H117.625V49.875H110.125V42.375H106.375V49.875H98.875V42.375H95.125V49.875H87.625V42.375H83.875V49.875H76.375V42.375H72.625V49.875H65.125V53.625H72.625V61.125H65.125V64.875H72.625V72.375H65.125V76.125H72.625V83.625H76.375V76.125H83.875V83.625H87.625V76.125H95.125V83.625H98.875V76.125H106.375V83.625H110.125V76.125H117.625V83.625H121.375V76.125H128.875V72.375ZM117.625 53.625V61.125H110.125V53.625H117.625ZM106.375 53.625V61.125H98.875V53.625H106.375ZM95.125 53.625V61.125H87.625V53.625H95.125ZM76.375 53.625H83.875V61.125H76.375V53.625ZM76.375 72.375V64.875H83.875V72.375H76.375ZM87.625 72.375V64.875H95.125V72.375H87.625ZM98.875 72.375V64.875H106.375V72.375H98.875ZM110.125 72.375V64.875H117.625V72.375H110.125Z" fill="#212F3C"/>
<path d="M46.375 98.625H50.125V102.375H46.375V98.625Z" fill="#212F3C"/>
<path d="M53.875 98.625H57.625V102.375H53.875V98.625Z" fill="#212F3C"/>
<path d="M61.375 98.625H65.125V102.375H61.375V98.625Z" fill="#212F3C"/>
</svg>
