<svg width="158" height="192" viewBox="0 0 158 192" fill="none" xmlns="http://www.w3.org/2000/svg">
<path d="M33.1907 145.198C36.8267 145.198 39.6887 142.3 39.6887 138.7C39.6887 135.1 36.8267 132.202 33.1907 132.202C29.5547 132.202 26.6927 135.1 26.6927 138.7C26.6927 142.3 29.5547 145.198 33.1907 145.198ZM33.1907 144.28C30.0767 144.28 27.6467 141.796 27.6467 138.7C27.6467 135.604 30.0767 133.12 33.1907 133.12C36.3047 133.12 38.7347 135.604 38.7347 138.7C38.7347 141.796 36.3047 144.28 33.1907 144.28ZM48.228 136H40.776V136.882H44.052V145H44.952V136.882H48.228V136ZM57.2897 136H49.8557V145H50.7557V136.882H56.3717V145H57.2897V136ZM64.8386 135.802C63.0926 135.802 61.7066 136.702 60.9686 138.088V136H60.0686V148.6H60.9686V142.912C61.7066 144.298 63.0926 145.198 64.8386 145.198C67.4126 145.198 69.5006 143.164 69.5006 140.5C69.5006 137.836 67.4126 135.802 64.8386 135.802ZM64.7846 144.334C62.6426 144.334 60.9686 142.642 60.9686 140.5C60.9686 138.358 62.6426 136.666 64.7846 136.666C66.9266 136.666 68.6006 138.358 68.6006 140.5C68.6006 142.642 66.9266 144.334 64.7846 144.334ZM79.5902 136V138.034C78.8342 136.684 77.4482 135.802 75.7202 135.802C73.1642 135.802 71.0582 137.836 71.0582 140.5C71.0582 143.164 73.1642 145.198 75.7202 145.198C77.4482 145.198 78.8342 144.316 79.5902 142.966V145H80.5082V136H79.5902ZM75.7922 144.334C73.6502 144.334 71.9762 142.642 71.9762 140.5C71.9762 138.358 73.6502 136.666 75.7922 136.666C77.9342 136.666 79.5902 138.358 79.5902 140.5C79.5902 142.642 77.9342 144.334 75.7922 144.334ZM88.8157 140.356C89.5897 139.978 89.9677 139.24 89.9677 138.358C89.9677 137.044 89.0497 136 87.2857 136H83.2717V145H87.6277C89.4997 145 90.3997 143.884 90.3997 142.516C90.3997 141.49 89.8597 140.698 88.8157 140.356ZM87.2857 136.882C88.4197 136.882 89.0497 137.458 89.0497 138.412C89.0497 139.42 88.4377 139.996 87.2857 139.996H84.1717V136.882H87.2857ZM87.6277 144.118H84.1717V140.878H87.6277C88.8157 140.878 89.4997 141.49 89.4997 142.48C89.4997 143.506 88.8337 144.118 87.6277 144.118ZM99.3512 136H93.0152V141.22C93.0152 143.542 92.2772 144.28 90.8912 144.154V145C92.5832 145.126 93.9152 144.37 93.9152 141.22V136.882H98.4512V145H99.3512V136ZM108.343 136H104.779C103.177 136 101.809 137.098 101.809 138.754C101.809 140.266 102.961 141.31 104.383 141.472L101.503 145H102.673L105.499 141.49H107.443V145H108.343V136ZM104.779 140.626C103.645 140.626 102.727 139.906 102.727 138.754C102.727 137.62 103.645 136.882 104.779 136.882H107.443V140.626H104.779ZM115.165 135.802C112.411 135.802 110.503 137.854 110.503 140.5C110.503 143.218 112.465 145.198 115.237 145.198C117.019 145.198 118.423 144.388 119.161 143.164L118.369 142.696C117.847 143.65 116.731 144.334 115.255 144.334C113.203 144.334 111.655 143.002 111.439 140.968H119.593C119.593 140.824 119.611 140.68 119.611 140.536C119.611 138.07 117.901 135.802 115.165 135.802ZM115.165 136.666C116.929 136.666 118.477 137.89 118.675 140.086H111.439C111.619 138.088 113.113 136.666 115.165 136.666ZM127.664 136H120.212V136.882H123.488V145H124.388V136.882H127.664V136ZM132.99 135.802C130.236 135.802 128.328 137.854 128.328 140.5C128.328 143.218 130.29 145.198 133.062 145.198C134.844 145.198 136.248 144.388 136.986 143.164L136.194 142.696C135.672 143.65 134.556 144.334 133.08 144.334C131.028 144.334 129.48 143.002 129.264 140.968H137.418C137.418 140.824 137.436 140.68 137.436 140.536C137.436 138.07 135.726 135.802 132.99 135.802ZM132.99 136.666C134.754 136.666 136.302 137.89 136.5 140.086H129.264C129.444 138.088 130.938 136.666 132.99 136.666ZM42.4248 161.356C43.2528 160.96 43.6848 160.186 43.6848 159.304C43.6848 157.972 42.5688 156.802 40.6608 156.802C39.0228 156.802 37.9608 157.594 37.4748 158.692L38.2308 159.124C38.6088 158.188 39.4728 157.666 40.6608 157.666C41.9388 157.666 42.7848 158.386 42.7848 159.34C42.7848 160.348 42.0648 160.996 40.8948 160.996H39.9948V161.878H41.2368C42.4608 161.878 43.2168 162.562 43.2168 163.534C43.2168 164.578 42.3528 165.334 40.8228 165.334C39.2568 165.334 38.4288 164.632 38.0868 163.624L37.3127 164.074C37.7628 165.262 38.8068 166.198 40.8228 166.198C43.0368 166.198 44.1348 164.956 44.1348 163.588C44.1348 162.562 43.5228 161.716 42.4248 161.356ZM54.0404 157V159.034C53.2844 157.684 51.8984 156.802 50.1704 156.802C47.6144 156.802 45.5084 158.836 45.5084 161.5C45.5084 164.164 47.6144 166.198 50.1704 166.198C51.8984 166.198 53.2844 165.316 54.0404 163.966V166H54.9584V157H54.0404ZM50.2424 165.334C48.1004 165.334 46.4264 163.642 46.4264 161.5C46.4264 159.358 48.1004 157.666 50.2424 157.666C52.3844 157.666 54.0404 159.358 54.0404 161.5C54.0404 163.642 52.3844 165.334 50.2424 165.334ZM63.9499 157H60.3859C58.7839 157 57.4159 158.098 57.4159 159.754C57.4159 161.266 58.5679 162.31 59.9899 162.472L57.1099 166H58.2799L61.1059 162.49H63.0499V166H63.9499V157ZM60.3859 161.626C59.2519 161.626 58.3339 160.906 58.3339 159.754C58.3339 158.62 59.2519 157.882 60.3859 157.882H63.0499V161.626H60.3859ZM72.2659 161.356C73.0399 160.978 73.4179 160.24 73.4179 159.358C73.4179 158.044 72.4999 157 70.7359 157H66.7219V166H71.0779C72.9499 166 73.8499 164.884 73.8499 163.516C73.8499 162.49 73.3099 161.698 72.2659 161.356ZM70.7359 157.882C71.8699 157.882 72.4999 158.458 72.4999 159.412C72.4999 160.42 71.8879 160.996 70.7359 160.996H67.6219V157.882H70.7359ZM71.0779 165.118H67.6219V161.878H71.0779C72.2659 161.878 72.9499 162.49 72.9499 163.48C72.9499 164.506 72.2839 165.118 71.0779 165.118ZM82.739 166L77.717 161.32L82.559 157H81.299L76.745 161.086V157H75.845V166H76.745V161.572L81.515 166H82.739ZM90.7826 157L87.6506 165.01L84.0146 157H83.0426L87.1826 166.162L86.9846 166.648C86.4266 167.962 85.5086 168.862 84.3026 168.754V169.6C85.8506 169.726 87.1826 168.556 87.8666 166.828L91.7546 157H90.7826ZM104.811 157L99.0692 164.434V157H98.1692V166H98.9612L104.685 158.566V166H105.603V157H104.811ZM115.69 157H109.354V162.22C109.354 164.542 108.616 165.28 107.23 165.154V166C108.922 166.126 110.254 165.37 110.254 162.22V157.882H114.79V166H115.69V157ZM125.096 157L119.354 164.434V157H118.454V166H119.246L124.97 158.566V166H125.888V157H125.096ZM35.2968 182.356C36.1248 181.96 36.5568 181.186 36.5568 180.304C36.5568 178.972 35.4408 177.802 33.5328 177.802C31.8948 177.802 30.8328 178.594 30.3468 179.692L31.1028 180.124C31.4808 179.188 32.3448 178.666 33.5328 178.666C34.8108 178.666 35.6568 179.386 35.6568 180.34C35.6568 181.348 34.9368 181.996 33.7668 181.996H32.8668V182.878H34.1088C35.3328 182.878 36.0888 183.562 36.0888 184.534C36.0888 185.578 35.2248 186.334 33.6948 186.334C32.1288 186.334 31.3008 185.632 30.9588 184.624L30.1848 185.074C30.6348 186.262 31.6788 187.198 33.6948 187.198C35.9088 187.198 37.0068 185.956 37.0068 184.588C37.0068 183.562 36.3948 182.716 35.2968 182.356ZM44.5364 182.356C45.3104 181.978 45.6884 181.24 45.6884 180.358C45.6884 179.044 44.7704 178 43.0064 178H38.9924V187H43.3484C45.2204 187 46.1204 185.884 46.1204 184.516C46.1204 183.49 45.5804 182.698 44.5364 182.356ZM43.0064 178.882C44.1404 178.882 44.7704 179.458 44.7704 180.412C44.7704 181.42 44.1584 181.996 43.0064 181.996H39.8924V178.882H43.0064ZM43.3484 186.118H39.8924V182.878H43.3484C44.5364 182.878 45.2204 183.49 45.2204 184.48C45.2204 185.506 44.5544 186.118 43.3484 186.118ZM52.2375 187.198C54.8475 187.198 56.9535 185.164 56.9535 182.5C56.9535 179.836 54.8475 177.802 52.2375 177.802C49.6095 177.802 47.5035 179.836 47.5035 182.5C47.5035 185.164 49.6095 187.198 52.2375 187.198ZM52.2375 186.334C50.0955 186.334 48.4215 184.642 48.4215 182.5C48.4215 180.358 50.0955 178.666 52.2375 178.666C54.3795 178.666 56.0355 180.358 56.0355 182.5C56.0355 184.642 54.3795 186.334 52.2375 186.334ZM65.6354 178V182.068H60.0194V178H59.1194V187H60.0194V182.932H65.6354V187H66.5534V178H65.6354ZM75.9743 178L70.2323 185.434V178H69.3323V187H70.1243L75.8483 179.566V187H76.7663V178H75.9743ZM85.8452 178H78.3932V178.882H81.6692V187H82.5692V178.882H85.8452V178ZM91.1714 177.802C88.4174 177.802 86.5094 179.854 86.5094 182.5C86.5094 185.218 88.4714 187.198 91.2434 187.198C93.0254 187.198 94.4294 186.388 95.1674 185.164L94.3754 184.696C93.8534 185.65 92.7374 186.334 91.2614 186.334C89.2094 186.334 87.6614 185.002 87.4454 182.968H95.5994C95.5994 182.824 95.6174 182.68 95.6174 182.536C95.6174 180.07 93.9074 177.802 91.1714 177.802ZM91.1714 178.666C92.9354 178.666 94.4834 179.89 94.6814 182.086H87.4454C87.6254 180.088 89.1194 178.666 91.1714 178.666ZM109.036 178V182.068H103.42V178H102.52V187H103.42V182.932H109.036V187H109.954V178H109.036ZM120.653 178V180.034C119.897 178.684 118.511 177.802 116.783 177.802C114.227 177.802 112.121 179.836 112.121 182.5C112.121 185.164 114.227 187.198 116.783 187.198C118.511 187.198 119.897 186.316 120.653 184.966V187H121.571V178H120.653ZM116.855 186.334C114.713 186.334 113.039 184.642 113.039 182.5C113.039 180.358 114.713 178.666 116.855 178.666C118.997 178.666 120.653 180.358 120.653 182.5C120.653 184.642 118.997 186.334 116.855 186.334ZM133.028 178H131.948L128.672 183.166L125.396 178H124.334V187H125.234V179.332L128.618 184.678H128.744L132.11 179.368V187H133.028V178Z" fill="black"/>
<path d="M39.134 3L20.834 9.6L24.734 23.3L37.134 19.9V73H53.134V3H39.134Z" fill="#FF6B00"/>
<path d="M152.924 37.5231L124.477 9.07562C122.414 7.01125 119.669 5.875 116.75 5.875C113.831 5.875 111.086 7.01125 109.023 9.07562L43.0756 75.0231C41.0113 77.0856 39.875 79.8306 39.875 82.75C39.875 85.6694 41.0113 88.4144 43.0756 90.4769L71.5231 118.924C73.5856 120.989 76.3306 122.125 79.25 122.125C82.1694 122.125 84.9144 120.989 86.9769 118.924L152.924 52.9769C154.989 50.9144 156.125 48.1694 156.125 45.25C156.125 42.3306 154.989 39.5856 152.924 37.5231ZM131.244 43.645L136.869 41.77L147.849 52.75L90.5 110.099L51.9012 71.5L109.25 14.1512L120.23 25.1313L118.355 30.7563L131.244 43.645ZM84.3256 116.273C81.6144 118.984 76.8856 118.984 74.1744 116.273L45.7269 87.8256C44.3712 86.47 43.625 84.6663 43.625 82.75C43.625 80.8337 44.3712 79.03 45.7269 77.6744L49.25 74.1513L87.8488 112.75L84.3256 116.273ZM150.478 50.0762L137.881 37.48L132.256 39.355L122.645 29.7437L124.52 24.1187L111.924 11.5225C113.249 10.3094 114.942 9.625 116.75 9.625C118.666 9.625 120.47 10.3712 121.826 11.7269L150.273 40.1744C151.629 41.53 152.375 43.3338 152.375 45.25C152.375 47.0575 151.691 48.7506 150.478 50.0762Z" fill="#212F3C"/>
<path d="M57.2866 93.4436L59.9379 90.7924L71.1858 102.04L68.5346 104.692L57.2866 93.4436Z" fill="#212F3C"/>
<path d="M90.4999 104.151L57.8486 71.5L105.5 23.8488L138.151 56.5L90.4999 104.151Z" fill="#0085FF"/>
<path d="M120.5 64.7762L97.2236 41.5L105.5 33.2238L128.776 56.5L120.5 64.7762ZM102.526 41.5L120.5 59.4737L123.474 56.5L105.5 38.5262L102.526 41.5Z" fill="#212F3C"/>
<path d="M69.0876 60.25L71.7389 57.5987L104.385 90.2449L101.734 92.8962L69.0876 60.25Z" fill="#212F3C"/>
<path d="M88.9849 91.3863L86.3337 88.735L88.9849 86.0838L91.6362 88.735L88.9849 91.3863ZM83.6824 86.0838L81.0293 83.4306L83.6806 80.7794L86.3337 83.4325L83.6824 86.0838ZM78.3799 80.7813L75.7287 78.13L78.3799 75.4788L81.0312 78.13L78.3799 80.7813ZM73.0756 75.4769L70.4243 72.8256L73.0756 70.1744L75.7268 72.8256L73.0756 75.4769Z" fill="#212F3C"/>
<path d="M122.375 97.75V94C125.476 94 128 91.4763 128 88.375H131.75C131.75 93.5444 127.544 97.75 122.375 97.75Z" fill="#212F3C"/>
<path d="M122.375 105.25V101.5C129.612 101.5 135.5 95.6125 135.5 88.375H139.25C139.25 97.6788 131.679 105.25 122.375 105.25Z" fill="#212F3C"/>
<path d="M68 39.625H64.25C64.25 34.4556 68.4556 30.25 73.625 30.25V34C70.5237 34 68 36.5237 68 39.625Z" fill="#212F3C"/>
<path d="M60.5 39.625H56.75C56.75 30.3212 64.3212 22.75 73.625 22.75V26.5C66.3875 26.5 60.5 32.3875 60.5 39.625Z" fill="#212F3C"/>
</svg>
