<svg width="185" height="265" viewBox="0 0 185 265" fill="none" xmlns="http://www.w3.org/2000/svg">
<path d="M24.8679 189.466C25.8399 188.944 26.4879 187.936 26.4879 186.712C26.4879 184.894 25.0119 183.4 23.1759 183.4H18.1539V196H23.5899C25.4979 196 27.0279 194.47 27.0279 192.562C27.0279 191.122 26.1279 189.952 24.8679 189.466ZM23.1759 184.3C24.4719 184.3 25.5339 185.38 25.5339 186.712C25.5339 188.044 24.4719 189.124 23.1759 189.124H19.1079V184.3H23.1759ZM23.5899 195.1H19.1079V190.024H23.5899C24.9579 190.024 26.0739 191.158 26.0739 192.562C26.0739 193.966 24.9579 195.1 23.5899 195.1ZM32.7527 190.492H30.0887V187H29.1887V196H32.7527C34.3547 196 35.7227 194.902 35.7227 193.246C35.7227 191.59 34.3547 190.492 32.7527 190.492ZM37.1087 187V196H38.0087V187H37.1087ZM32.7527 195.118H30.0887V191.374H32.7527C33.8867 191.374 34.8047 192.094 34.8047 193.246C34.8047 194.38 33.8867 195.118 32.7527 195.118ZM52.0875 187V191.068H46.4715V187H45.5715V196H46.4715V191.932H52.0875V196H53.0055V187H52.0875ZM63.7044 187V189.034C62.9484 187.684 61.5624 186.802 59.8344 186.802C57.2784 186.802 55.1724 188.836 55.1724 191.5C55.1724 194.164 57.2784 196.198 59.8344 196.198C61.5624 196.198 62.9484 195.316 63.7044 193.966V196H64.6224V187H63.7044ZM59.9064 195.334C57.7644 195.334 56.0904 193.642 56.0904 191.5C56.0904 189.358 57.7644 187.666 59.9064 187.666C62.0484 187.666 63.7044 189.358 63.7044 191.5C63.7044 193.642 62.0484 195.334 59.9064 195.334ZM71.508 196.198C73.272 196.198 74.784 195.298 75.504 193.912L74.748 193.462C74.154 194.578 72.966 195.334 71.508 195.334C69.33 195.334 67.692 193.642 67.692 191.5C67.692 189.358 69.33 187.666 71.508 187.666C72.948 187.666 74.172 188.404 74.694 189.538L75.432 189.106C74.784 187.702 73.272 186.802 71.508 186.802C68.79 186.802 66.774 188.836 66.774 191.5C66.774 194.164 68.79 196.198 71.508 196.198ZM84.6081 187H78.2721V192.22C78.2721 194.542 77.5341 195.28 76.1481 195.154V196C77.8401 196.126 79.1721 195.37 79.1721 192.22V187.882H83.7081V196H84.6081V187ZM95.2923 187V189.034C94.5363 187.684 93.1503 186.802 91.4223 186.802C88.8663 186.802 86.7603 188.836 86.7603 191.5C86.7603 194.164 88.8663 196.198 91.4223 196.198C93.1503 196.198 94.5363 195.316 95.2923 193.966V196H96.2103V187H95.2923ZM91.4943 195.334C89.3523 195.334 87.6783 193.642 87.6783 191.5C87.6783 189.358 89.3523 187.666 91.4943 187.666C93.6363 187.666 95.2923 189.358 95.2923 191.5C95.2923 193.642 93.6363 195.334 91.4943 195.334ZM109.108 196L104.86 191.32L108.928 187H107.812L104.014 191.068V187H103.096V191.068L99.2979 187H98.1819L102.268 191.32L98.0019 196H99.1179L103.096 191.572V196H104.014V191.572L107.992 196H109.108ZM118.289 195.118V187H111.971V191.5C111.971 193.282 111.611 194.254 110.981 195.118H109.937V198.412H110.855V196H118.631V198.412H119.549V195.118H118.289ZM112.097 195.118C112.601 194.2 112.871 193.102 112.871 191.5V187.882H117.371V195.118H112.097ZM129.095 187V189.034C128.339 187.684 126.953 186.802 125.225 186.802C122.669 186.802 120.563 188.836 120.563 191.5C120.563 194.164 122.669 196.198 125.225 196.198C126.953 196.198 128.339 195.316 129.095 193.966V196H130.013V187H129.095ZM125.297 195.334C123.155 195.334 121.481 193.642 121.481 191.5C121.481 189.358 123.155 187.666 125.297 187.666C127.439 187.666 129.095 189.358 129.095 191.5C129.095 193.642 127.439 195.334 125.297 195.334ZM136.827 186.802C134.073 186.802 132.165 188.854 132.165 191.5C132.165 194.218 134.127 196.198 136.899 196.198C138.681 196.198 140.085 195.388 140.823 194.164L140.031 193.696C139.509 194.65 138.393 195.334 136.917 195.334C134.865 195.334 133.317 194.002 133.101 191.968H141.255C141.255 191.824 141.273 191.68 141.273 191.536C141.273 189.07 139.563 186.802 136.827 186.802ZM136.827 187.666C138.591 187.666 140.139 188.89 140.337 191.086H133.101C133.281 189.088 134.775 187.666 136.827 187.666ZM149.325 187H141.873V187.882H145.149V196H146.049V187.882H149.325V187ZM154.651 186.802C151.897 186.802 149.989 188.854 149.989 191.5C149.989 194.218 151.951 196.198 154.723 196.198C156.505 196.198 157.909 195.388 158.647 194.164L157.855 193.696C157.333 194.65 156.217 195.334 154.741 195.334C152.689 195.334 151.141 194.002 150.925 191.968H159.079C159.079 191.824 159.097 191.68 159.097 191.536C159.097 189.07 157.387 186.802 154.651 186.802ZM154.651 187.666C156.415 187.666 157.963 188.89 158.161 191.086H150.925C151.105 189.088 152.599 187.666 154.651 187.666ZM165.322 196.198C167.086 196.198 168.598 195.298 169.318 193.912L168.562 193.462C167.968 194.578 166.78 195.334 165.322 195.334C163.144 195.334 161.506 193.642 161.506 191.5C161.506 189.358 163.144 187.666 165.322 187.666C166.762 187.666 167.986 188.404 168.508 189.538L169.246 189.106C168.598 187.702 167.086 186.802 165.322 186.802C162.604 186.802 160.588 188.836 160.588 191.5C160.588 194.164 162.604 196.198 165.322 196.198ZM174.854 190.492H172.19V187H171.29V196H174.854C176.456 196 177.824 194.902 177.824 193.246C177.824 191.59 176.456 190.492 174.854 190.492ZM174.854 195.118H172.19V191.374H174.854C175.988 191.374 176.906 192.094 176.906 193.246C176.906 194.38 175.988 195.118 174.854 195.118ZM47.9709 217.198C49.7349 217.198 51.2469 216.298 51.9669 214.912L51.2109 214.462C50.6169 215.578 49.4289 216.334 47.9709 216.334C45.7929 216.334 44.1549 214.642 44.1549 212.5C44.1549 210.358 45.7929 208.666 47.9709 208.666C49.4109 208.666 50.6349 209.404 51.1569 210.538L51.8949 210.106C51.2469 208.702 49.7349 207.802 47.9709 207.802C45.2529 207.802 43.2369 209.836 43.2369 212.5C43.2369 215.164 45.2529 217.198 47.9709 217.198ZM59.4827 212.356C60.2567 211.978 60.6347 211.24 60.6347 210.358C60.6347 209.044 59.7167 208 57.9527 208H53.9387V217H58.2947C60.1667 217 61.0667 215.884 61.0667 214.516C61.0667 213.49 60.5267 212.698 59.4827 212.356ZM57.9527 208.882C59.0867 208.882 59.7167 209.458 59.7167 210.412C59.7167 211.42 59.1047 211.996 57.9527 211.996H54.8387V208.882H57.9527ZM58.2947 216.118H54.8387V212.878H58.2947C59.4827 212.878 60.1667 213.49 60.1667 214.48C60.1667 215.506 59.5007 216.118 58.2947 216.118ZM67.1838 217.198C69.7938 217.198 71.8998 215.164 71.8998 212.5C71.8998 209.836 69.7938 207.802 67.1838 207.802C64.5558 207.802 62.4498 209.836 62.4498 212.5C62.4498 215.164 64.5558 217.198 67.1838 217.198ZM67.1838 216.334C65.0418 216.334 63.3678 214.642 63.3678 212.5C63.3678 210.358 65.0418 208.666 67.1838 208.666C69.3258 208.666 70.9818 210.358 70.9818 212.5C70.9818 214.642 69.3258 216.334 67.1838 216.334ZM80.7077 208L74.9657 215.434V208H74.0657V217H74.8577L80.5817 209.566V217H81.4997V208H80.7077ZM92.9726 208H91.8926L88.6166 213.166L85.3406 208H84.2786V217H85.1786V209.332L88.5626 214.678H88.6886L92.0546 209.368V217H92.9726V208ZM107.054 208V212.068H101.438V208H100.538V217H101.438V212.932H107.054V217H107.972V208H107.054ZM114.873 217.198C117.483 217.198 119.589 215.164 119.589 212.5C119.589 209.836 117.483 207.802 114.873 207.802C112.245 207.802 110.139 209.836 110.139 212.5C110.139 215.164 112.245 217.198 114.873 217.198ZM114.873 216.334C112.731 216.334 111.057 214.642 111.057 212.5C111.057 210.358 112.731 208.666 114.873 208.666C117.015 208.666 118.671 210.358 118.671 212.5C118.671 214.642 117.015 216.334 114.873 216.334ZM127.299 212.356C128.073 211.978 128.451 211.24 128.451 210.358C128.451 209.044 127.533 208 125.769 208H121.755V217H126.111C127.983 217 128.883 215.884 128.883 214.516C128.883 213.49 128.343 212.698 127.299 212.356ZM125.769 208.882C126.903 208.882 127.533 209.458 127.533 210.412C127.533 211.42 126.921 211.996 125.769 211.996H122.655V208.882H125.769ZM126.111 216.118H122.655V212.878H126.111C127.299 212.878 127.983 213.49 127.983 214.48C127.983 215.506 127.317 216.118 126.111 216.118ZM134.442 211.492H131.778V208H130.878V217H134.442C136.044 217 137.412 215.902 137.412 214.246C137.412 212.59 136.044 211.492 134.442 211.492ZM138.798 208V217H139.698V208H138.798ZM134.442 216.118H131.778V212.374H134.442C135.576 212.374 136.494 213.094 136.494 214.246C136.494 215.38 135.576 216.118 134.442 216.118ZM151.156 208H150.076L146.8 213.166L143.524 208H142.462V217H143.362V209.332L146.746 214.678H146.872L150.238 209.368V217H151.156V208ZM40.3669 229H32.9329V238H33.8329V229.882H39.4489V238H40.3669V229ZM47.9158 228.802C46.1698 228.802 44.7838 229.702 44.0458 231.088V229H43.1458V241.6H44.0458V235.912C44.7838 237.298 46.1698 238.198 47.9158 238.198C50.4898 238.198 52.5778 236.164 52.5778 233.5C52.5778 230.836 50.4898 228.802 47.9158 228.802ZM47.8618 237.334C45.7198 237.334 44.0458 235.642 44.0458 233.5C44.0458 231.358 45.7198 229.666 47.8618 229.666C50.0038 229.666 51.6778 231.358 51.6778 233.5C51.6778 235.642 50.0038 237.334 47.8618 237.334ZM58.7973 228.802C56.0433 228.802 54.1353 230.854 54.1353 233.5C54.1353 236.218 56.0973 238.198 58.8693 238.198C60.6513 238.198 62.0553 237.388 62.7933 236.164L62.0013 235.696C61.4793 236.65 60.3633 237.334 58.8873 237.334C56.8353 237.334 55.2873 236.002 55.0713 233.968H63.2253C63.2253 233.824 63.2433 233.68 63.2433 233.536C63.2433 231.07 61.5333 228.802 58.7973 228.802ZM58.7973 229.666C60.5613 229.666 62.1093 230.89 62.3073 233.086H55.0713C55.2513 231.088 56.7453 229.666 58.7973 229.666ZM74.0409 229H72.9609L69.6849 234.166L66.4089 229H65.3469V238H66.2469V230.332L69.6309 235.678H69.7569L73.1229 230.368V238H74.0409V229ZM83.4499 229L77.7079 236.434V229H76.8079V238H77.5999L83.3239 230.566V238H84.2419V229H83.4499ZM93.6088 229L90.4768 237.01L86.8408 229H85.8688L90.0088 238.162L89.8108 238.648C89.2528 239.962 88.3348 240.862 87.1288 240.754V241.6C88.6768 241.726 90.0088 240.556 90.6928 238.828L94.5808 229H93.6088ZM104.891 229H103.811L100.535 234.166L97.2585 229H96.1965V238H97.0965V230.332L100.481 235.678H100.607L103.973 230.368V238H104.891V229ZM116.578 238.198C119.188 238.198 121.294 236.164 121.294 233.5C121.294 230.836 119.188 228.802 116.578 228.802C113.95 228.802 111.844 230.836 111.844 233.5C111.844 236.164 113.95 238.198 116.578 238.198ZM116.578 237.334C114.436 237.334 112.762 235.642 112.762 233.5C112.762 231.358 114.436 229.666 116.578 229.666C118.72 229.666 120.376 231.358 120.376 233.5C120.376 235.642 118.72 237.334 116.578 237.334ZM130.354 238L125.332 233.32L130.174 229H128.914L124.36 233.086V229H123.46V238H124.36V233.572L129.13 238H130.354ZM138.677 229V233.068H133.061V229H132.161V238H133.061V233.932H138.677V238H139.595V229H138.677ZM146.496 238.198C149.106 238.198 151.212 236.164 151.212 233.5C151.212 230.836 149.106 228.802 146.496 228.802C143.868 228.802 141.762 230.836 141.762 233.5C141.762 236.164 143.868 238.198 146.496 238.198ZM146.496 237.334C144.354 237.334 142.68 235.642 142.68 233.5C142.68 231.358 144.354 229.666 146.496 229.666C148.638 229.666 150.294 231.358 150.294 233.5C150.294 235.642 148.638 237.334 146.496 237.334ZM162.072 229H160.992L157.716 234.166L154.44 229H153.378V238H154.278V230.332L157.662 235.678H157.788L161.154 230.368V238H162.072V229Z" fill="black"/>
<path d="M42.7215 40.1L57.9215 18H39.5215L18.1215 50.5C15.5215 54.4 14.0215 59.3 14.0215 64.7C14.0215 79.2 24.5215 89.4 40.0215 89.4C55.4215 89.4 66.0215 79.2 66.0215 64.7C66.0215 51.1 56.6215 41.2 42.7215 40.1ZM40.0215 74.4C34.6215 74.4 30.0215 70.9 30.0215 64.7C30.0215 58.5 34.6215 55 40.0215 55C45.3215 55 50.0215 58.6 50.0215 64.7C50.0215 70.8 45.3215 74.4 40.0215 74.4Z" fill="#0085FF"/>
<path d="M170.5 137.5H158V27.5C159.987 27.4941 161.892 26.702 163.297 25.2967C164.702 23.8915 165.494 21.9873 165.5 20V7.5C165.5 6.83696 165.237 6.20107 164.768 5.73223C164.299 5.26339 163.663 5 163 5H33C32.337 5 31.7011 5.26339 31.2322 5.73223C30.7634 6.20107 30.5 6.83696 30.5 7.5V20C30.5059 21.9873 31.298 23.8915 32.7033 25.2967C34.1085 26.702 36.0127 27.4941 38 27.5V137.5H25.5C24.837 137.5 24.2011 137.763 23.7322 138.232C23.2634 138.701 23 139.337 23 140V152.5C23 153.163 23.2634 153.799 23.7322 154.268C24.2011 154.737 24.837 155 25.5 155H170.5C171.163 155 171.799 154.737 172.268 154.268C172.737 153.799 173 153.163 173 152.5V140C173 139.337 172.737 138.701 172.268 138.232C171.799 137.763 171.163 137.5 170.5 137.5ZM35.5 20V10H160.5V20C160.5 20.663 160.237 21.2989 159.768 21.7678C159.299 22.2366 158.663 22.5 158 22.5H38C37.337 22.5 36.7011 22.2366 36.2322 21.7678C35.7634 21.2989 35.5 20.663 35.5 20ZM153 27.5V137.5H43V27.5H153ZM168 150H28V142.5H168V150Z" fill="#FF6B00"/>
<path d="M148 30H48C47.337 30 46.7011 30.2634 46.2322 30.7322C45.7634 31.2011 45.5 31.837 45.5 32.5V132.5C45.5 133.163 45.7634 133.799 46.2322 134.268C46.7011 134.737 47.337 135 48 135H148C148.663 135 149.299 134.737 149.768 134.268C150.237 133.799 150.5 133.163 150.5 132.5V32.5C150.5 31.837 150.237 31.2011 149.768 30.7322C149.299 30.2634 148.663 30 148 30ZM95.5 130H50.5V82.5H95.5V130ZM95.5 77.5H50.5V35H95.5V77.5ZM145.5 130H100.5V82.5H145.5V130ZM145.5 77.5H100.5V35H145.5V77.5Z" fill="#FF6B00"/>
<path d="M56.2241 50.7311L66.2229 40.7323L69.7579 44.2673L59.7591 54.2661L56.2241 50.7311Z" fill="#FF6B00"/>
<path d="M56.2241 63.2307L78.7209 40.734L82.2559 44.269L59.7591 66.7657L56.2241 63.2307Z" fill="#FF6B00"/>
</svg>
