<svg width="175" height="254" viewBox="0 0 175 254" fill="none" xmlns="http://www.w3.org/2000/svg">
<path d="M55.6534 182.4H54.4474L49.9474 189.852L45.4474 182.4H44.2594V195H45.2134V183.804L49.8754 191.544H50.0374L54.6994 183.804V195H55.6534V182.4ZM62.6489 185.802C59.8949 185.802 57.9869 187.854 57.9869 190.5C57.9869 193.218 59.9489 195.198 62.7209 195.198C64.5029 195.198 65.9069 194.388 66.6449 193.164L65.8529 192.696C65.3309 193.65 64.2149 194.334 62.7389 194.334C60.6869 194.334 59.1389 193.002 58.9229 190.968H67.0769C67.0769 190.824 67.0949 190.68 67.0949 190.536C67.0949 188.07 65.3849 185.802 62.6489 185.802ZM62.6489 186.666C64.4129 186.666 65.9609 187.89 66.1589 190.086H58.9229C59.1029 188.088 60.5969 186.666 62.6489 186.666ZM75.7145 186V190.068H70.0985V186H69.1985V195H70.0985V190.932H75.7145V195H76.6325V186H75.7145ZM83.4614 185.802C80.7074 185.802 78.7994 187.854 78.7994 190.5C78.7994 193.218 80.7614 195.198 83.5334 195.198C85.3154 195.198 86.7194 194.388 87.4574 193.164L86.6654 192.696C86.1434 193.65 85.0274 194.334 83.5514 194.334C81.4994 194.334 79.9514 193.002 79.7354 190.968H87.8894C87.8894 190.824 87.9074 190.68 87.9074 190.536C87.9074 188.07 86.1974 185.802 83.4614 185.802ZM83.4614 186.666C85.2254 186.666 86.7734 187.89 86.9714 190.086H79.7354C79.9154 188.088 81.4094 186.666 83.4614 186.666ZM97.0394 194.118V186H90.7214V190.5C90.7214 192.282 90.3614 193.254 89.7314 194.118H88.6874V197.412H89.6054V195H97.3814V197.412H98.2994V194.118H97.0394ZM90.8474 194.118C91.3514 193.2 91.6214 192.102 91.6214 190.5V186.882H96.1214V194.118H90.8474ZM110.411 195L106.163 190.32L110.231 186H109.115L105.317 190.068V186H104.399V190.068L100.601 186H99.4846L103.571 190.32L99.3046 195H100.421L104.399 190.572V195H105.317V190.572L109.295 195H110.411ZM115.541 185.802C112.787 185.802 110.879 187.854 110.879 190.5C110.879 193.218 112.841 195.198 115.613 195.198C117.395 195.198 118.799 194.388 119.537 193.164L118.745 192.696C118.223 193.65 117.107 194.334 115.631 194.334C113.579 194.334 112.031 193.002 111.815 190.968H119.969C119.969 190.824 119.987 190.68 119.987 190.536C119.987 188.07 118.277 185.802 115.541 185.802ZM115.541 186.666C117.305 186.666 118.853 187.89 119.051 190.086H111.815C111.995 188.088 113.489 186.666 115.541 186.666ZM126.861 185.802C125.115 185.802 123.729 186.702 122.991 188.088V186H122.091V198.6H122.991V192.912C123.729 194.298 125.115 195.198 126.861 195.198C129.435 195.198 131.523 193.164 131.523 190.5C131.523 187.836 129.435 185.802 126.861 185.802ZM126.807 194.334C124.665 194.334 122.991 192.642 122.991 190.5C122.991 188.358 124.665 186.666 126.807 186.666C128.949 186.666 130.623 188.358 130.623 190.5C130.623 192.642 128.949 194.334 126.807 194.334ZM8.45722 216.198C10.2212 216.198 11.7332 215.298 12.4532 213.912L11.6972 213.462C11.1032 214.578 9.91522 215.334 8.45722 215.334C6.27922 215.334 4.64122 213.642 4.64122 211.5C4.64122 209.358 6.27922 207.666 8.45722 207.666C9.89722 207.666 11.1212 208.404 11.6432 209.538L12.3812 209.106C11.7332 207.702 10.2212 206.802 8.45722 206.802C5.73922 206.802 3.72322 208.836 3.72322 211.5C3.72322 214.164 5.73922 216.198 8.45722 216.198ZM19.9691 211.356C20.7431 210.978 21.1211 210.24 21.1211 209.358C21.1211 208.044 20.2031 207 18.4391 207H14.4251V216H18.7811C20.6531 216 21.5531 214.884 21.5531 213.516C21.5531 212.49 21.0131 211.698 19.9691 211.356ZM18.4391 207.882C19.5731 207.882 20.2031 208.458 20.2031 209.412C20.2031 210.42 19.5911 210.996 18.4391 210.996H15.3251V207.882H18.4391ZM18.7811 215.118H15.3251V211.878H18.7811C19.9691 211.878 20.6531 212.49 20.6531 213.48C20.6531 214.506 19.9871 215.118 18.7811 215.118ZM29.4245 207H25.8605C24.2585 207 22.8905 208.098 22.8905 209.754C22.8905 211.266 24.0425 212.31 25.4645 212.472L22.5845 216H23.7545L26.5805 212.49H28.5245V216H29.4245V207ZM25.8605 211.626C24.7265 211.626 23.8085 210.906 23.8085 209.754C23.8085 208.62 24.7265 207.882 25.8605 207.882H28.5245V211.626H25.8605ZM36.5165 211.356C37.3445 210.96 37.7765 210.186 37.7765 209.304C37.7765 207.972 36.6605 206.802 34.7525 206.802C33.1145 206.802 32.0525 207.594 31.5665 208.692L32.3225 209.124C32.7005 208.188 33.5645 207.666 34.7525 207.666C36.0305 207.666 36.8765 208.386 36.8765 209.34C36.8765 210.348 36.1565 210.996 34.9865 210.996H34.0865V211.878H35.3285C36.5525 211.878 37.3085 212.562 37.3085 213.534C37.3085 214.578 36.4445 215.334 34.9145 215.334C33.3485 215.334 32.5205 214.632 32.1785 213.624L31.4045 214.074C31.8545 215.262 32.8985 216.198 34.9145 216.198C37.1285 216.198 38.2265 214.956 38.2265 213.588C38.2265 212.562 37.6145 211.716 36.5165 211.356ZM43.7762 210.492H41.1122V207H40.2122V216H43.7762C45.3782 216 46.7462 214.902 46.7462 213.246C46.7462 211.59 45.3782 210.492 43.7762 210.492ZM48.1322 207V216H49.0322V207H48.1322ZM43.7762 215.118H41.1122V211.374H43.7762C44.9102 211.374 45.8282 212.094 45.8282 213.246C45.8282 214.38 44.9102 215.118 43.7762 215.118ZM57.3402 211.356C58.1142 210.978 58.4922 210.24 58.4922 209.358C58.4922 208.044 57.5742 207 55.8102 207H51.7962V216H56.1522C58.0242 216 58.9242 214.884 58.9242 213.516C58.9242 212.49 58.3842 211.698 57.3402 211.356ZM55.8102 207.882C56.9442 207.882 57.5742 208.458 57.5742 209.412C57.5742 210.42 56.9622 210.996 55.8102 210.996H52.6962V207.882H55.8102ZM56.1522 215.118H52.6962V211.878H56.1522C57.3402 211.878 58.0242 212.49 58.0242 213.48C58.0242 214.506 57.3582 215.118 56.1522 215.118ZM68.8392 207V209.034C68.0832 207.684 66.6972 206.802 64.9692 206.802C62.4132 206.802 60.3072 208.836 60.3072 211.5C60.3072 214.164 62.4132 216.198 64.9692 216.198C66.6972 216.198 68.0832 215.316 68.8392 213.966V216H69.7572V207H68.8392ZM65.0412 215.334C62.8992 215.334 61.2252 213.642 61.2252 211.5C61.2252 209.358 62.8992 207.666 65.0412 207.666C67.1832 207.666 68.8392 209.358 68.8392 211.5C68.8392 213.642 67.1832 215.334 65.0412 215.334ZM76.5708 206.802C73.8168 206.802 71.9088 208.854 71.9088 211.5C71.9088 214.218 73.8708 216.198 76.6428 216.198C78.4248 216.198 79.8288 215.388 80.5668 214.164L79.7748 213.696C79.2528 214.65 78.1368 215.334 76.6608 215.334C74.6088 215.334 73.0608 214.002 72.8448 211.968H80.9988C80.9988 211.824 81.0168 211.68 81.0168 211.536C81.0168 209.07 79.3068 206.802 76.5708 206.802ZM76.5708 207.666C78.3348 207.666 79.8828 208.89 80.0808 211.086H72.8448C73.0248 209.088 74.5188 207.666 76.5708 207.666ZM89.0688 207H81.6168V207.882H84.8928V216H85.7928V207.882H89.0688V207ZM94.467 216.198C96.231 216.198 97.743 215.298 98.463 213.912L97.707 213.462C97.113 214.578 95.925 215.334 94.467 215.334C92.289 215.334 90.651 213.642 90.651 211.5C90.651 209.358 92.289 207.666 94.467 207.666C95.907 207.666 97.131 208.404 97.653 209.538L98.391 209.106C97.743 207.702 96.231 206.802 94.467 206.802C91.749 206.802 89.733 208.836 89.733 211.5C89.733 214.164 91.749 216.198 94.467 216.198ZM106.487 207H102.923C101.321 207 99.953 208.098 99.953 209.754C99.953 211.266 101.105 212.31 102.527 212.472L99.647 216H100.817L103.643 212.49H105.587V216H106.487V207ZM102.923 211.626C101.789 211.626 100.871 210.906 100.871 209.754C100.871 208.62 101.789 207.882 102.923 207.882H105.587V211.626H102.923ZM118.18 216.198C119.944 216.198 121.456 215.298 122.176 213.912L121.42 213.462C120.826 214.578 119.638 215.334 118.18 215.334C116.002 215.334 114.364 213.642 114.364 211.5C114.364 209.358 116.002 207.666 118.18 207.666C119.62 207.666 120.844 208.404 121.366 209.538L122.104 209.106C121.456 207.702 119.944 206.802 118.18 206.802C115.462 206.802 113.446 208.836 113.446 211.5C113.446 214.164 115.462 216.198 118.18 216.198ZM135.841 209.466C136.813 208.944 137.461 207.936 137.461 206.712C137.461 204.894 135.985 203.4 134.149 203.4H129.127V216H134.563C136.471 216 138.001 214.47 138.001 212.562C138.001 211.122 137.101 209.952 135.841 209.466ZM134.149 204.3C135.445 204.3 136.507 205.38 136.507 206.712C136.507 208.044 135.445 209.124 134.149 209.124H130.081V204.3H134.149ZM134.563 215.1H130.081V210.024H134.563C135.931 210.024 137.047 211.158 137.047 212.562C137.047 213.966 135.931 215.1 134.563 215.1ZM148.081 207V209.034C147.325 207.684 145.939 206.802 144.211 206.802C141.655 206.802 139.549 208.836 139.549 211.5C139.549 214.164 141.655 216.198 144.211 216.198C145.939 216.198 147.325 215.316 148.081 213.966V216H148.999V207H148.081ZM144.283 215.334C142.141 215.334 140.467 213.642 140.467 211.5C140.467 209.358 142.141 207.666 144.283 207.666C146.425 207.666 148.081 209.358 148.081 211.5C148.081 213.642 146.425 215.334 144.283 215.334ZM160.457 207H159.377L156.101 212.166L152.825 207H151.763V216H152.663V208.332L156.047 213.678H156.173L159.539 208.368V216H160.457V207ZM169.866 207L164.124 214.434V207H163.224V216H164.016L169.74 208.566V216H170.658V207H169.866Z" fill="black"/>
<path d="M19.5398 74H67.1398V58.6H43.6398L55.2398 46.9C61.6398 40.5 66.1398 33.3 66.1398 24.9C66.1398 10.8 54.9398 2.6 42.4398 2.6C32.7398 2.6 23.3398 7.5 18.8398 17.9L32.3398 25.8C34.2398 21.4 37.7398 18.2 42.6398 18.2C47.3398 18.2 50.1398 21.2 50.1398 25.6C50.1398 29.7 47.1398 33.8 43.0398 38L19.5398 62.4V74Z" fill="#FF6B00"/>
<path d="M87.0002 106.742C63.5208 106.742 44.4197 125.843 44.4197 149.322V159H129.581V149.322C129.581 125.843 110.48 106.742 87.0002 106.742ZM104.137 114.666C98.6288 126.577 90.575 143.814 87.1067 150.852L69.8732 114.66C75.0449 112.094 80.8453 110.613 87.0002 110.613C93.1588 110.613 98.9633 112.095 104.137 114.666ZM107.03 117.635L111.887 138.677L91.7541 150.182C94.3879 144.838 98.9247 135.166 107.03 117.635ZM82.5967 150.383L62.1133 138.679L66.9809 117.59L82.5967 150.383ZM48.2907 149.322C48.2907 137.216 53.8843 126.401 62.6132 119.298L57.6952 140.611L83.1003 155.129H48.2907V149.322ZM125.71 155.129H90.9001L116.307 140.611L111.387 119.297C120.116 126.4 125.709 137.216 125.709 149.322V155.129H125.71Z" fill="#212F3C"/>
<path d="M111.136 95.1288H116.033C119.234 95.1288 121.839 92.5235 121.839 89.3223V83.5158H117.968V89.3223C117.968 90.3888 117.101 91.2578 116.033 91.2578H113.778C116.425 86.6958 117.968 81.4177 117.968 75.7741C117.968 58.6991 104.075 44.8066 87.0007 44.8066C69.9261 44.8066 56.0332 58.6995 56.0332 75.7741C56.0332 92.8487 69.9261 106.742 87.0007 106.742C96.753 106.742 105.455 102.199 111.136 95.1288ZM59.9034 75.7741C59.9034 60.8322 72.0583 48.6773 87.0002 48.6773C101.942 48.6773 114.097 60.8322 114.097 75.7741C114.097 81.5302 112.28 86.8645 109.206 91.2578H96.3218C95.5207 89.0106 93.3913 87.3868 90.8713 87.3868H83.1292C79.928 87.3868 77.3227 89.9921 77.3227 93.1933C77.3227 96.3945 79.928 98.9999 83.1292 98.9999H90.8713C93.3913 98.9999 95.5203 97.3761 96.3218 95.1288H105.929C101.04 99.9095 94.3631 102.871 87.0023 102.871C72.0583 102.871 59.9034 90.716 59.9034 75.7741ZM92.8068 93.1933C92.8068 94.2599 91.9398 95.1288 90.8713 95.1288H83.1292C82.0607 95.1288 81.1937 94.2599 81.1937 93.1933C81.1937 92.1268 82.0607 91.2578 83.1292 91.2578H90.8713C91.9394 91.2578 92.8068 92.1272 92.8068 93.1933Z" fill="#212F3C"/>
<path d="M87.0004 42.871C100.988 42.871 113.476 51.7373 118.076 64.9336L121.732 63.6602C116.588 48.9097 102.631 39 87.0004 39C71.3716 39 57.4149 48.9097 52.27 63.6581L55.926 64.9336C60.5271 51.7373 73.0148 42.871 87.0004 42.871Z" fill="#212F3C"/>
<path d="M56.0328 89.3226H54.0973C46.6283 89.3226 40.5491 83.2433 40.5491 75.7743C40.5491 68.3054 46.6283 62.2261 54.0973 62.2261H56.0328V89.3226Z" fill="#0085FF"/>
<path d="M119.903 89.3225H117.968V62.2257H119.903C127.372 62.2257 133.452 68.305 133.452 75.7739C133.452 83.2429 127.373 89.3225 119.903 89.3225Z" fill="#0085FF"/>
</svg>
