<svg width="189" height="254" viewBox="0 0 189 254" fill="none" xmlns="http://www.w3.org/2000/svg">
<path d="M30.4515 195H31.4055V182.4H30.5595L23.1255 193.236V182.4H22.1715V195H22.9995L30.4515 184.164V195ZM38.6689 190.356C39.4969 189.96 39.9289 189.186 39.9289 188.304C39.9289 186.972 38.8129 185.802 36.9049 185.802C35.2669 185.802 34.2049 186.594 33.7189 187.692L34.4749 188.124C34.8529 187.188 35.7169 186.666 36.9049 186.666C38.1829 186.666 39.0289 187.386 39.0289 188.34C39.0289 189.348 38.3089 189.996 37.1389 189.996H36.2389V190.878H37.4809C38.7049 190.878 39.4609 191.562 39.4609 192.534C39.4609 193.578 38.5969 194.334 37.0669 194.334C35.5009 194.334 34.6729 193.632 34.3309 192.624L33.5569 193.074C34.0069 194.262 35.0509 195.198 37.0669 195.198C39.2809 195.198 40.3789 193.956 40.3789 192.588C40.3789 191.562 39.7669 190.716 38.6689 190.356ZM47.9985 186H42.3645V195H43.2645V186.882H47.9985V186ZM53.3771 195.198C55.9871 195.198 58.0931 193.164 58.0931 190.5C58.0931 187.836 55.9871 185.802 53.3771 185.802C50.7491 185.802 48.6431 187.836 48.6431 190.5C48.6431 193.164 50.7491 195.198 53.3771 195.198ZM53.3771 194.334C51.2351 194.334 49.5611 192.642 49.5611 190.5C49.5611 188.358 51.2351 186.666 53.3771 186.666C55.5191 186.666 57.1751 188.358 57.1751 190.5C57.1751 192.642 55.5191 194.334 53.3771 194.334ZM66.2075 186H58.7555V186.882H62.0315V195H62.9315V186.882H66.2075V186ZM71.6057 195.198C74.2157 195.198 76.3217 193.164 76.3217 190.5C76.3217 187.836 74.2157 185.802 71.6057 185.802C68.9777 185.802 66.8717 187.836 66.8717 190.5C66.8717 193.164 68.9777 195.198 71.6057 195.198ZM71.6057 194.334C69.4637 194.334 67.7897 192.642 67.7897 190.5C67.7897 188.358 69.4637 186.666 71.6057 186.666C73.7477 186.666 75.4037 188.358 75.4037 190.5C75.4037 192.642 73.7477 194.334 71.6057 194.334ZM84.0316 190.356C84.8056 189.978 85.1836 189.24 85.1836 188.358C85.1836 187.044 84.2656 186 82.5016 186H78.4876V195H82.8436C84.7156 195 85.6156 193.884 85.6156 192.516C85.6156 191.49 85.0756 190.698 84.0316 190.356ZM82.5016 186.882C83.6356 186.882 84.2656 187.458 84.2656 188.412C84.2656 189.42 83.6536 189.996 82.5016 189.996H79.3876V186.882H82.5016ZM82.8436 194.118H79.3876V190.878H82.8436C84.0316 190.878 84.7156 191.49 84.7156 192.48C84.7156 193.506 84.0496 194.118 82.8436 194.118ZM94.567 186H88.231V191.22C88.231 193.542 87.493 194.28 86.107 194.154V195C87.799 195.126 89.131 194.37 89.131 191.22V186.882H93.667V195H94.567V186ZM101.381 185.802C98.6273 185.802 96.7193 187.854 96.7193 190.5C96.7193 193.218 98.6813 195.198 101.453 195.198C103.235 195.198 104.639 194.388 105.377 193.164L104.585 192.696C104.063 193.65 102.947 194.334 101.471 194.334C99.4193 194.334 97.8713 193.002 97.6553 190.968H105.809C105.809 190.824 105.827 190.68 105.827 190.536C105.827 188.07 104.117 185.802 101.381 185.802ZM101.381 186.666C103.145 186.666 104.693 187.89 104.891 190.086H97.6553C97.8353 188.088 99.3293 186.666 101.381 186.666ZM114.447 186V190.068H108.831V186H107.931V195H108.831V190.932H114.447V195H115.365V186H114.447ZM124.786 186L119.044 193.434V186H118.144V195H118.936L124.66 187.566V195H125.578V186H124.786ZM132.407 185.802C129.653 185.802 127.745 187.854 127.745 190.5C127.745 193.218 129.707 195.198 132.479 195.198C134.261 195.198 135.665 194.388 136.403 193.164L135.611 192.696C135.089 193.65 133.973 194.334 132.497 194.334C130.445 194.334 128.897 193.002 128.681 190.968H136.835C136.835 190.824 136.853 190.68 136.853 190.536C136.853 188.07 135.143 185.802 132.407 185.802ZM132.407 186.666C134.171 186.666 135.719 187.89 135.917 190.086H128.681C128.861 188.088 130.355 186.666 132.407 186.666ZM147.877 195.198C150.487 195.198 152.593 193.164 152.593 190.5C152.593 187.836 150.487 185.802 147.877 185.802C145.249 185.802 143.143 187.836 143.143 190.5C143.143 193.164 145.249 195.198 147.877 195.198ZM147.877 194.334C145.735 194.334 144.061 192.642 144.061 190.5C144.061 188.358 145.735 186.666 147.877 186.666C150.019 186.666 151.675 188.358 151.675 190.5C151.675 192.642 150.019 194.334 147.877 194.334ZM161.653 195L156.631 190.32L161.473 186H160.213L155.659 190.086V186H154.759V195H155.659V190.572L160.429 195H161.653ZM166.686 195.198C169.296 195.198 171.402 193.164 171.402 190.5C171.402 187.836 169.296 185.802 166.686 185.802C164.058 185.802 161.952 187.836 161.952 190.5C161.952 193.164 164.058 195.198 166.686 195.198ZM166.686 194.334C164.544 194.334 162.87 192.642 162.87 190.5C162.87 188.358 164.544 186.666 166.686 186.666C168.828 186.666 170.484 188.358 170.484 190.5C170.484 192.642 168.828 194.334 166.686 194.334ZM180.084 186V190.068H174.468V186H173.568V195H174.468V190.932H180.084V195H181.002V186H180.084ZM27.6764 207H20.2424V216H21.1424V207.882H26.7584V216H27.6764V207ZM34.5773 216.198C37.1873 216.198 39.2933 214.164 39.2933 211.5C39.2933 208.836 37.1873 206.802 34.5773 206.802C31.9493 206.802 29.8433 208.836 29.8433 211.5C29.8433 214.164 31.9493 216.198 34.5773 216.198ZM34.5773 215.334C32.4353 215.334 30.7613 213.642 30.7613 211.5C30.7613 209.358 32.4353 207.666 34.5773 207.666C36.7193 207.666 38.3753 209.358 38.3753 211.5C38.3753 213.642 36.7193 215.334 34.5773 215.334ZM48.4877 215.118V207H42.1697V211.5C42.1697 213.282 41.8097 214.254 41.1797 215.118H40.1357V218.412H41.0537V216H48.8297V218.412H49.7477V215.118H48.4877ZM42.2957 215.118C42.7997 214.2 43.0697 213.102 43.0697 211.5V207.882H47.5697V215.118H42.2957ZM63.4177 209.466C64.3897 208.944 65.0377 207.936 65.0377 206.712C65.0377 204.894 63.5617 203.4 61.7257 203.4H56.7037V216H62.1397C64.0477 216 65.5777 214.47 65.5777 212.562C65.5777 211.122 64.6777 209.952 63.4177 209.466ZM61.7257 204.3C63.0217 204.3 64.0837 205.38 64.0837 206.712C64.0837 208.044 63.0217 209.124 61.7257 209.124H57.6577V204.3H61.7257ZM62.1397 215.1H57.6577V210.024H62.1397C63.5077 210.024 64.6237 211.158 64.6237 212.562C64.6237 213.966 63.5077 215.1 62.1397 215.1ZM75.6585 207V209.034C74.9025 207.684 73.5165 206.802 71.7885 206.802C69.2325 206.802 67.1265 208.836 67.1265 211.5C67.1265 214.164 69.2325 216.198 71.7885 216.198C73.5165 216.198 74.9025 215.316 75.6585 213.966V216H76.5765V207H75.6585ZM71.8605 215.334C69.7185 215.334 68.0445 213.642 68.0445 211.5C68.0445 209.358 69.7185 207.666 71.8605 207.666C74.0025 207.666 75.6585 209.358 75.6585 211.5C75.6585 213.642 74.0025 215.334 71.8605 215.334ZM90.3561 207V215.118H85.7661V207H84.8481V215.118H80.2401V207H79.3401V216H91.2741V207H90.3561ZM100.695 207L94.953 214.434V207H94.053V216H94.845L100.569 208.566V216H101.487V207H100.695ZM113.835 206.802C112.089 206.802 110.703 207.702 109.965 209.088V207H109.065V219.6H109.965V213.912C110.703 215.298 112.089 216.198 113.835 216.198C116.409 216.198 118.497 214.164 118.497 211.5C118.497 208.836 116.409 206.802 113.835 206.802ZM113.781 215.334C111.639 215.334 109.965 213.642 109.965 211.5C109.965 209.358 111.639 207.666 113.781 207.666C115.923 207.666 117.597 209.358 117.597 211.5C117.597 213.642 115.923 215.334 113.781 215.334ZM128.586 207V209.034C127.83 207.684 126.444 206.802 124.716 206.802C122.16 206.802 120.054 208.836 120.054 211.5C120.054 214.164 122.16 216.198 124.716 216.198C126.444 216.198 127.83 215.316 128.586 213.966V216H129.504V207H128.586ZM124.788 215.334C122.646 215.334 120.972 213.642 120.972 211.5C120.972 209.358 122.646 207.666 124.788 207.666C126.93 207.666 128.586 209.358 128.586 211.5C128.586 213.642 126.93 215.334 124.788 215.334ZM136.588 211.356C137.416 210.96 137.848 210.186 137.848 209.304C137.848 207.972 136.732 206.802 134.824 206.802C133.186 206.802 132.124 207.594 131.638 208.692L132.394 209.124C132.772 208.188 133.636 207.666 134.824 207.666C136.102 207.666 136.948 208.386 136.948 209.34C136.948 210.348 136.228 210.996 135.058 210.996H134.158V211.878H135.4C136.624 211.878 137.38 212.562 137.38 213.534C137.38 214.578 136.516 215.334 134.986 215.334C133.42 215.334 132.592 214.632 132.25 213.624L131.476 214.074C131.926 215.262 132.97 216.198 134.986 216.198C137.2 216.198 138.298 214.956 138.298 213.588C138.298 212.562 137.686 211.716 136.588 211.356ZM148.977 207H147.897L144.621 212.166L141.345 207H140.283V216H141.183V208.332L144.567 213.678H144.693L148.059 208.368V216H148.977V207ZM155.794 206.802C153.04 206.802 151.132 208.854 151.132 211.5C151.132 214.218 153.094 216.198 155.866 216.198C157.648 216.198 159.052 215.388 159.79 214.164L158.998 213.696C158.476 214.65 157.36 215.334 155.884 215.334C153.832 215.334 152.284 214.002 152.068 211.968H160.222C160.222 211.824 160.24 211.68 160.24 211.536C160.24 209.07 158.53 206.802 155.794 206.802ZM155.794 207.666C157.558 207.666 159.106 208.89 159.304 211.086H152.068C152.248 209.088 153.742 207.666 155.794 207.666ZM167.114 206.802C165.368 206.802 163.982 207.702 163.244 209.088V207H162.344V219.6H163.244V213.912C163.982 215.298 165.368 216.198 167.114 216.198C169.688 216.198 171.776 214.164 171.776 211.5C171.776 208.836 169.688 206.802 167.114 206.802ZM167.06 215.334C164.918 215.334 163.244 213.642 163.244 211.5C163.244 209.358 164.918 207.666 167.06 207.666C169.202 207.666 170.876 209.358 170.876 211.5C170.876 213.642 169.202 215.334 167.06 215.334ZM177.51 210.492H174.846V207H173.946V216H177.51C179.112 216 180.48 214.902 180.48 213.246C180.48 211.59 179.112 210.492 177.51 210.492ZM181.866 207V216H182.766V207H181.866ZM177.51 215.118H174.846V211.374H177.51C178.644 211.374 179.562 212.094 179.562 213.246C179.562 214.38 178.644 215.118 177.51 215.118Z" fill="black"/>
<path d="M67.9961 47H60.9961V32H44.7961V47H30.1961L52.4961 3H35.2961L12.9961 47V61.8H44.7961V73H60.9961V61.8H67.9961V47Z" fill="#FF6B00"/>
<g clip-path="url(#clip0)">
<path d="M152.323 38H48.863C45.079 38 42 41.079 42 44.863C42 47.2824 43.2947 49.5467 45.3776 50.7744L65.2258 62.4705V51.5484C65.2258 49.4097 66.9581 47.6774 69.0968 47.6774H72.9677C75.1064 47.6774 76.8387 49.4097 76.8387 51.5484V64.5184C80.5122 66.2753 83.2897 69.6028 84.2244 73.6647L113.613 90.982V74.7742L115.897 72.1091L115.548 71.904L87.5727 55.4194H144.581V89.0115L136.841 84.4516L136.839 84.4497V104.667L149.911 112.371C151.144 113.1 152.551 113.484 153.981 113.484C158.404 113.484 162 109.888 162 105.465V47.6774C162 42.3416 157.658 38 152.323 38V38Z" fill="#0085FF"/>
<path d="M71.0322 68.9679C66.7624 68.9679 63.2903 72.44 63.2903 76.7098C63.2903 80.9796 66.7624 84.4518 71.0322 84.4518C75.302 84.4518 78.7742 80.9796 78.7742 76.7098C78.7742 72.44 75.302 68.9679 71.0322 68.9679ZM71.0322 80.5808C68.8973 80.5808 67.1613 78.8447 67.1613 76.7098C67.1613 74.5749 68.8973 72.8389 71.0322 72.8389C73.1671 72.8389 74.9032 74.5749 74.9032 76.7098C74.9032 78.8447 73.1671 80.5808 71.0322 80.5808Z" fill="#212F3C"/>
<path d="M84.1998 84.8155C85.659 82.4538 86.5161 79.6847 86.5161 76.7097C86.5161 70.994 83.3946 66.0022 78.7742 63.3201V51.5484C78.7742 48.3475 76.1687 45.7419 72.9677 45.7419H69.0968C65.8959 45.7419 63.2903 48.3475 63.2903 51.5484V63.3201C58.6699 66.0022 55.5484 70.994 55.5484 76.7097C55.5484 79.6847 56.4056 82.4538 57.8647 84.8155L42.8591 113.399C42.2958 114.384 42 115.503 42 116.638C42 119.29 43.5953 121.566 45.871 122.587V130.903H49.7419V123.113C51.7937 122.881 53.646 121.682 54.712 119.813L69.2244 92.0792C69.8188 92.1491 70.4208 92.1936 71.0323 92.1936C71.6437 92.1936 72.2457 92.1491 72.8402 92.0792L87.3875 119.874C88.4242 121.691 90.2727 122.881 92.3245 123.113V130.903H96.1954V122.585C98.4711 121.564 100.066 119.288 100.066 116.637C100.066 115.501 99.7706 114.382 99.2404 113.458L84.1998 84.8155ZM67.1613 51.5484C67.1613 50.4805 68.0289 49.6129 69.0968 49.6129H72.9677C74.0357 49.6129 74.9032 50.4805 74.9032 51.5484V61.7352C73.6624 61.4139 72.3714 61.2258 71.0323 61.2258C69.6931 61.2258 68.4022 61.4139 67.1613 61.7352V51.5484ZM51.3174 117.955C50.8467 118.777 49.965 119.29 49.0142 119.29H48.5228C47.0589 119.29 45.871 118.102 45.871 116.638C45.871 116.178 45.991 115.721 46.2547 115.261L60.5345 88.0589C61.9332 89.3546 63.5634 90.3932 65.3647 91.1058L51.3174 117.955ZM59.4194 76.7097C59.4194 70.305 64.6276 65.0968 71.0323 65.0968C77.4369 65.0968 82.6452 70.305 82.6452 76.7097C82.6452 83.1144 77.4369 88.3226 71.0323 88.3226C64.6276 88.3226 59.4194 83.1144 59.4194 76.7097ZM93.5417 119.29H93.0503C92.0995 119.29 91.2178 118.777 90.7802 118.016L76.6969 91.1058C78.4992 90.3932 80.1313 89.3546 81.5281 88.0589L95.8429 115.323C96.0735 115.721 96.1935 116.178 96.1935 116.638C96.1935 118.102 95.0056 119.29 93.5417 119.29Z" fill="#212F3C"/>
<path d="M146.516 53.4839H80.4753L112.924 72.6043L111.677 74.0579V144.452C111.677 151.92 117.757 158 125.226 158C132.695 158 138.774 151.92 138.774 144.452V87.8368L146.516 92.3986V53.4839ZM115.548 76.7097H123.29V130.903H115.548V76.7097ZM115.548 134.774H134.903V138.645H115.548V134.774ZM127.161 130.903V76.7097H134.903V130.903H127.161ZM117.82 72.8387L125.226 64.199L132.631 72.8387H117.82ZM125.226 154.129C119.89 154.129 115.548 149.787 115.548 144.452V142.516H134.903V144.452C134.903 149.787 130.562 154.129 125.226 154.129ZM142.645 85.6244L138.774 83.345V74.0579L125.226 58.2527L115.482 69.6198L94.6702 57.3549H142.645V85.6244Z" fill="#212F3C"/>
</g>
<defs>
<clipPath id="clip0">
<rect x="42" y="38" width="120" height="120" fill="white"/>
</clipPath>
</defs>
</svg>
